# xmcd
#
# Track frame offsets: 
#        150
#        20387
#        37617
#        57777
#        79285
#        99893
#        113044
#        129663
#        146962
#        158348
#
# Disc length: 2435 seconds
#
# Revision: 0
# Processed by: cddbd v1.5.2PL0 Copyright (c) Steve Scherf et al.
# Submitted via: ExactAudioCopy v1.1
#
DISCID=7109810a
DTITLE=Mike Brookfield - Love Breaks The Fall
DYEAR=2015
DGENRE=Blues
TTITLE0=Love Breaks The Fall
TTITLE1=Catfish Missile
TTITLE2=The Killing Line
TTITLE3=Blue Skies
TTITLE4=No Candle Burns In The Rain
TTITLE5=Bare Witness
TTITLE6=What You Don't Know Ain't Gonna Kill Ya
TTITLE7=Golden Rule Girl
TTITLE8=All My Heroes Are Junkies
TTITLE9=Peace For Joe
EXTD=
EXTT0=
EXTT1=
EXTT2=
EXTT3=
EXTT4=
EXTT5=
EXTT6=
EXTT7=
EXTT8=
EXTT9=
PLAYORDER=
